<?xml version="1.0" encoding="UTF-8" standalone="no"?>
<svg
   width="167.117"
   height="150.658"
   viewBox="0 0 44.216 39.861"
   version="1.1"
   id="svg14"
   sodipodi:docname="icon.svg"
   xml:space="preserve"
   inkscape:version="1.3.2 (091e20ef0f, 2023-11-25)"
   xmlns:inkscape="http://www.inkscape.org/namespaces/inkscape"
   xmlns:sodipodi="http://sodipodi.sourceforge.net/DTD/sodipodi-0.dtd"
   xmlns:xlink="http://www.w3.org/1999/xlink"
   xmlns="http://www.w3.org/2000/svg"
   xmlns:svg="http://www.w3.org/2000/svg"><defs
     id="defs14"><linearGradient
       id="linearGradient42"
       inkscape:collect="always"><stop
         style="stop-color:#008aaa;stop-opacity:1;"
         offset="0"
         id="stop41" /><stop
         style="stop-color:#33c6e9;stop-opacity:1;"
         offset="1"
         id="stop42" /></linearGradient><linearGradient
       id="linearGradient36"
       inkscape:collect="always"><stop
         style="stop-color:#008aaa;stop-opacity:1;"
         offset="0"
         id="stop36" /><stop
         style="stop-color:#008aaa;stop-opacity:0.99106872;"
         offset="1"
         id="stop37" /></linearGradient><linearGradient
       id="linearGradient25"
       inkscape:collect="always"><stop
         style="stop-color:#f8a1a1;stop-opacity:1;"
         offset="0"
         id="stop25" /><stop
         style="stop-color:#000000;stop-opacity:1;"
         offset="1"
         id="stop26" /></linearGradient><linearGradient
       inkscape:collect="always"
       xlink:href="#linearGradient25"
       id="linearGradient26"
       x1="75.754181"
       y1="42.636242"
       x2="101.55177"
       y2="42.636242"
       gradientUnits="userSpaceOnUse" /><linearGradient
       inkscape:collect="always"
       xlink:href="#linearGradient36"
       id="linearGradient37"
       x1="75.754184"
       y1="42.636241"
       x2="101.55177"
       y2="42.636241"
       gradientUnits="userSpaceOnUse" /><linearGradient
       inkscape:collect="always"
       xlink:href="#linearGradient42"
       id="linearGradient41"
       gradientUnits="userSpaceOnUse"
       x1="80.871841"
       y1="50.941772"
       x2="101.55177"
       y2="42.636241" /><linearGradient
       inkscape:collect="always"
       xlink:href="#linearGradient42"
       id="linearGradient43"
       gradientUnits="userSpaceOnUse"
       x1="80.871841"
       y1="50.941772"
       x2="101.55177"
       y2="42.636241" /><linearGradient
       inkscape:collect="always"
       xlink:href="#linearGradient42"
       id="linearGradient44"
       gradientUnits="userSpaceOnUse"
       x1="80.871841"
       y1="50.941772"
       x2="101.55177"
       y2="42.636241" /><linearGradient
       inkscape:collect="always"
       xlink:href="#linearGradient42"
       id="linearGradient45"
       gradientUnits="userSpaceOnUse"
       x1="80.871841"
       y1="50.941772"
       x2="101.55177"
       y2="42.636241" /><linearGradient
       inkscape:collect="always"
       xlink:href="#linearGradient42"
       id="linearGradient46"
       gradientUnits="userSpaceOnUse"
       x1="80.871841"
       y1="50.941772"
       x2="101.55177"
       y2="42.636241" /></defs><sodipodi:namedview
     id="namedview14"
     pagecolor="#ffffff"
     bordercolor="#666666"
     borderopacity="1.0"
     inkscape:showpageshadow="2"
     inkscape:pageopacity="0.0"
     inkscape:pagecheckerboard="0"
     inkscape:deskcolor="#d1d1d1"
     inkscape:zoom="3.8759899"
     inkscape:cx="76.238589"
     inkscape:cy="74.948596"
     inkscape:window-width="1503"
     inkscape:window-height="933"
     inkscape:window-x="0"
     inkscape:window-y="0"
     inkscape:window-maximized="1"
     inkscape:current-layer="svg14" /><path
     d="m88.61 138.456 5.716-9.865 23.018-.004 5.686 9.965.007 19.932-5.691 9.957-23.012.008-5.782-9.965z"
     style="display:inline;fill:#4d4d4d;fill-opacity:1;stroke-width:.264583"
     id="path1"
     transform="translate(-82.815 -128.588)" /><path
     d="m 88.552,158.481 h 12.65318 c -0.37291,-4.06955 -0.29676,-8.22444 -1.04386,-12.32099 -0.471906,-2.58764 -2.640931,-5.10189 -2.733978,-7.70201 L 88.61,138.456 82.815,148.521"
     style="fill:#ededed;fill-opacity:1;fill-rule:nonzero;stroke:none;stroke-width:0.330729"
     transform="translate(-82.815,-128.588)"
     id="path2"
     sodipodi:nodetypes="cccccc" /><path
     d="m 82.815,148.52 5.738,9.964 h 10.374 l -0.616256,-10.19064 z"
     style="fill:#acacac;fill-opacity:1;fill-rule:nonzero;stroke:none;stroke-width:0.330729"
     transform="translate(-82.815,-128.588)"
     id="path4"
     sodipodi:nodetypes="ccccc" /><path
     d="M 116.85583,158.481 H 127.031 l -0.007,-19.93 H 96.703059 l 3.680071,8.63798 z"
     style="fill:#d4d4d4;fill-opacity:1;fill-rule:nonzero;stroke:none;stroke-width:0.330729"
     transform="translate(-82.815,-128.588)"
     id="path9"
     sodipodi:nodetypes="cccccc" /><path
     d="m 101.71403,148.554 -5.136914,5.85691 1.207815,4.07309 H 127.01 v -9.93 z"
     style="fill:#919191;fill-opacity:1;fill-rule:nonzero;stroke:none;stroke-width:0.330729"
     transform="translate(-82.815,-128.588)"
     id="path10"
     sodipodi:nodetypes="cccccc" /><g
     id="g25"
     transform="matrix(1.4411893,0,0,1.4411893,-10.728983,-44.086501)"
     style="fill:url(#linearGradient26);stroke:none"><g
       id="g30"
       style="fill:url(#linearGradient37);fill-opacity:1"
       transform="translate(-10.167766,2.1338217)"><g
         id="g41"
         style="fill:url(#linearGradient41)"
         transform="translate(-55.095857,-0.35084538)"><g
           id="g14"
           transform="matrix(0.29412298,0,0,0.29412298,45.10349,-5.3254182)"
           style="fill:url(#linearGradient44);fill-opacity:1;stroke:none"><path
             d="m 148.06556,133.16384 c -17.62419,0 -31.96836,14.35093 -31.96836,31.96836 0,17.61743 14.35094,31.96836 31.96836,31.96836 17.61743,0 31.96837,-14.35093 31.96837,-31.96836 0,-17.61743 -14.35094,-31.96836 -31.96837,-31.96836 z m -0.0473,2.84042 a 2.0965076,2.1032706 0 0 1 2.04241,2.10328 2.1032706,2.1032706 0 0 1 -4.20654,0 2.1032706,2.1032706 0 0 1 2.16413,-2.10328 z m 4.81521,3.46262 a 25.881725,25.881725 0 0 1 17.71887,12.61963 l -2.48199,5.59971 c -0.42607,0.96709 0.0135,2.10327 0.97386,2.53609 l 4.77463,2.1168 a 25.881725,25.881725 0 0 1 0.0541,4.49058 h -2.65783 c -0.26375,0 -0.37196,0.17584 -0.37196,0.43283 v 1.21733 c 0,2.86748 -1.61634,3.49643 -3.03656,3.65198 -1.35258,0.15555 -2.84719,-0.56809 -3.03655,-1.39316 -0.79803,-4.48382 -2.12356,-5.4374 -4.22007,-7.09431 2.60373,-1.65016 5.3089,-4.09158 5.3089,-7.35131 0,-3.52348 -2.41437,-5.74172 -4.05776,-6.83055 -2.31292,-1.52167 -4.86931,-1.826 -5.55913,-1.826 H 128.7845 a 25.881725,25.881725 0 0 1 14.47943,-8.16962 l 3.23944,3.39499 c 0.73039,0.76422 1.94096,0.79803 2.70517,0.0609 z m -29.89214,15.56827 a 2.1032706,2.1032706 0 0 1 2.0424,2.10327 2.1032706,2.1032706 0 0 1 -4.20654,0 2.1032706,2.1032706 0 0 1 2.16414,-2.10327 z m 50.14711,0.0947 a 2.1032706,2.1032706 0 0 1 2.04241,2.10327 2.1032706,2.1032706 0 0 1 -4.20654,0 2.1032706,2.1032706 0 0 1 2.16413,-2.10327 z M 126.9044,155.468 h 3.66551 v 16.52859 h -7.39864 a 25.881725,25.881725 0 0 1 -0.83861,-9.88064 l 4.53117,-2.01535 c 0.96709,-0.43283 1.40668,-1.56224 0.97386,-2.52933 z m 15.29775,0.17583 h 8.73094 c 0.45311,0 3.18534,0.52075 3.18534,2.56991 0,1.6975 -2.09651,2.30616 -3.82106,2.30616 h -8.10199 z m 0,11.8757 h 6.68853 c 0.60867,0 3.2665,0.17584 4.11186,3.57083 0.26376,1.04149 0.85213,4.43648 1.25114,5.52531 0.39902,1.21733 2.01536,3.65198 3.7399,3.65198 h 10.91537 a 25.881725,25.881725 0 0 1 -2.39408,2.7728 l -4.44324,-0.95357 c -1.03473,-0.22318 -2.05593,0.43959 -2.27911,1.47432 l -1.05502,4.92341 a 25.881725,25.881725 0 0 1 -21.5805,-0.10144 l -1.05501,-4.92342 c -0.22318,-1.03472 -1.23762,-1.69749 -2.27235,-1.47431 l -4.34856,0.93328 a 25.881725,25.881725 0 0 1 -2.24529,-2.65107 h 21.14767 c 0.2367,0 0.39902,-0.0406 0.39902,-0.26375 v -7.4798 c 0,-0.21641 -0.16232,-0.26375 -0.39902,-0.26375 h -6.18808 z m -9.75891,17.1305 a 2.1032706,2.1032706 0 0 1 2.04241,2.10327 2.103275,2.103275 0 0 1 -4.20655,0 2.1032706,2.1032706 0 0 1 2.16414,-2.10327 z m 31.14328,0.0947 a 2.1032706,2.1032706 0 0 1 2.04241,2.10327 2.103271,2.103271 0 0 1 -4.20654,0 2.1032706,2.1032706 0 0 1 2.16413,-2.10327 z"
             id="path1-5"
             style="fill:url(#linearGradient43);fill-opacity:1;stroke:none;stroke-width:0.676293" /></g><g
           id="g15"
           transform="matrix(0.05006707,0,0,0.05006707,48.429826,25.775988)"
           style="fill:url(#linearGradient46);fill-opacity:1;stroke:none"><path
             id="path24"
             style="fill:url(#linearGradient45);fill-opacity:1;fill-rule:evenodd;stroke:none;stroke-width:25.2659;stroke-linecap:round;stroke-linejoin:round;paint-order:stroke markers fill"
             d="M 975.10329,348.88736 A 171.71797,171.71797 0 0 1 803.38531,520.60533 171.71797,171.71797 0 0 1 631.66734,348.88736 171.71797,171.71797 0 0 1 803.38531,177.16939 171.71797,171.71797 0 0 1 975.10329,348.88736 Z M 803.37056,85.077282 c -8.077,0.001 -14.626,7.276 -14.625,16.249998 0,0.138 0.028,0.27 0.03,0.406 -0.011,1.22 -0.07,2.689 -0.03,3.75 0.192,5.176 1.32,9.138 2,13.907 1.23,10.206 2.26,18.667 1.625,26.531 -0.62,2.965 -2.803,5.677 -4.75,7.562 l -0.344,6.188 a 190.337,190.337 0 0 0 -26.438,4.062 c -37.974,8.623 -70.67,28.184 -95.562,54.594 a 245.167,245.167 0 0 1 -5.281,-3.75 c -2.612,0.353 -5.25,1.159 -8.688,-0.844 -6.545,-4.405 -12.506,-10.486 -19.719,-17.812 -3.305,-3.504 -5.698,-6.841 -9.625,-10.219 -0.891,-0.767 -2.252,-1.804 -3.25,-2.594 -3.07,-2.447 -6.69,-3.724 -10.187,-3.843 -4.496,-0.154 -8.824,1.604 -11.656,5.156 -5.036,6.315 -3.424,15.968 3.593,21.562 0.071,0.057 0.147,0.101 0.219,0.157 0.964,0.781 2.145,1.783 3.031,2.437 4.167,3.077 7.973,4.652 12.125,7.094 8.747,5.402 15.999,9.88 21.75,15.281 2.246,2.394 2.639,6.613 2.938,8.438 l 4.687,4.187 c -25.093,37.764 -36.707,84.41 -29.843,131.938 l -6.125,1.781 c -1.615,2.085 -3.896,5.365 -6.282,6.344 -7.525,2.37 -15.994,3.24 -26.218,4.312 -4.8,0.4 -8.943,0.161 -14.032,1.125 -1.12,0.212 -2.68,0.619 -3.906,0.906 l -0.125,0.032 c -0.067,0.015 -0.155,0.048 -0.219,0.062 -8.62,2.083 -14.157,10.006 -12.375,17.813 1.783,7.808 10.203,12.556 18.875,10.687 0.063,-0.014 0.154,-0.017 0.219,-0.031 0.098,-0.022 0.184,-0.07 0.281,-0.094 1.21,-0.265 2.724,-0.56 3.782,-0.843 5.003,-1.34 8.626,-3.308 13.125,-5.032 9.676,-3.47 17.691,-6.37 25.5,-7.5 3.26,-0.255 6.697,2.012 8.406,2.969 l 6.375,-1.094 c 14.67,45.483 45.414,82.245 84.344,105.313 l -2.657,6.375 c 0.958,2.475 2.014,5.824 1.3,8.27 -2.838,7.36 -7.7,15.13 -13.237,23.792 -2.681,4.002 -5.425,7.108 -7.844,11.688 -0.579,1.096 -1.316,2.78 -1.875,3.937 -3.759,8.043 -1.002,17.305 6.219,20.782 7.266,3.497 16.284,-0.192 20.187,-8.25 0.006,-0.012 0.026,-0.02 0.031,-0.032 0.004,-0.009 -0.004,-0.022 0,-0.03 0.556,-1.143 1.344,-2.645 1.813,-3.72 2.072,-4.747 2.762,-8.815 4.219,-13.406 3.87,-9.72 5.995,-19.919 11.322,-26.274 1.459,-1.74 3.837,-2.41 6.303,-3.07 l 3.312,-6 c 33.938,13.027 71.927,16.523 109.875,7.907 a 189.77,189.77 0 0 0 25.094,-7.563 c 0.93,1.651 2.661,4.826 3.125,5.625 2.506,0.815 5.24,1.236 7.469,4.531 3.985,6.81 6.71,14.865 10.031,24.594 1.457,4.591 2.178,8.66 4.25,13.406 0.472,1.082 1.256,2.605 1.812,3.75 3.895,8.085 12.943,11.787 20.22,8.282 7.219,-3.478 9.979,-12.74 6.218,-20.782 -0.559,-1.158 -1.327,-2.841 -1.906,-3.937 -2.42,-4.58 -5.163,-7.655 -7.844,-11.656 -5.537,-8.662 -10.13,-15.858 -12.969,-23.22 -1.187,-3.796 0.2,-6.157 1.125,-8.624 -0.554,-0.635 -1.739,-4.22 -2.437,-5.906 40.457,-23.889 70.298,-62.022 84.312,-106.063 1.893,0.298 5.182,0.88 6.25,1.094 2.2,-1.45 4.222,-3.344 8.188,-3.031 7.80804,1.129 15.82304,4.03 25.50004,7.5 4.498,1.723 8.121,3.723 13.125,5.062 1.057,0.283 2.572,0.547 3.781,0.813 0.097,0.023 0.183,0.071 0.281,0.093 0.066,0.015 0.156,0.017 0.219,0.032 8.672,1.866 17.094,-2.88 18.875,-10.688 1.78,-7.807 -3.754,-15.732 -12.375,-17.812 -1.254,-0.286 -3.032,-0.77 -4.25,-1 -5.09,-0.964 -9.231,-0.727 -14.031,-1.125 -10.225,-1.072 -18.694,-1.943 -26.219,-4.313 -3.068,-1.19 -5.25104,-4.841 -6.31304,-6.344 l -5.906,-1.718 c 3.062,-22.155 2.237,-45.212 -3.062,-68.282 -5.349,-23.284 -14.8,-44.58 -27.407,-63.343 1.515,-1.378 4.377,-3.911 5.188,-4.657 0.237,-2.624 0.033,-5.375 2.75,-8.281 5.751,-5.4 13.003,-9.879 21.75,-15.281 4.152,-2.443 7.99,-4.017 12.15604,-7.094 0.942,-0.696 2.23,-1.798 3.219,-2.594 7.015,-5.596 8.63,-15.248 3.594,-21.562 -5.037,-6.314 -14.79704,-6.91 -21.81304,-1.313 -0.998,0.791 -2.353,1.823 -3.25,2.594 -3.926,3.378 -6.351,6.714 -9.656,10.219 -7.213,7.326 -13.174,13.438 -19.719,17.844 -2.836,1.65 -6.99,1.08 -8.875,0.968 l -5.562,3.969 c -31.72,-33.26 -74.905,-54.525 -121.406,-58.656 -0.13,-1.949 -0.3,-5.471 -0.344,-6.532 -1.904,-1.821 -4.204,-3.376 -4.781,-7.312 -0.637,-7.864 0.426,-16.325 1.656,-26.531 0.679,-4.769 1.807,-8.73 2,-13.907 0.044,-1.176 -0.027,-2.884 -0.031,-4.156 -10e-4,-8.973998 -6.548,-16.249998 -14.625,-16.249998 z" /></g></g></g></g></svg>
